<?xml version="1.0" encoding="UTF-8"?>
<svg version="1.1" xmlns="http://www.w3.org/2000/svg" width="500" height="500">
<path d="M0 0 C17.08490902 14.81206053 27.76533907 33.997808 30.796875 56.44921875 C31.08285156 60.68288589 31.13110495 64.89434032 31.109375 69.13671875 C31.10446045 70.27939209 31.0995459 71.42206543 31.09448242 72.59936523 C30.9709614 81.55432246 30.06645484 89.75681986 27.796875 98.44921875 C27.63590332 99.10051758 27.47493164 99.75181641 27.30908203 100.42285156 C18.77697912 134.56765532 -0.80248868 169.4884529 -23.203125 196.44921875 C-24.70559975 198.32223627 -26.20573514 200.19713361 -27.703125 202.07421875 C-28.3321875 202.85023438 -28.96125 203.62625 -29.609375 204.42578125 C-31.33682728 206.56410597 -31.33682728 206.56410597 -33.203125 209.44921875 C-33.863125 209.44921875 -34.523125 209.44921875 -35.203125 209.44921875 C-35.41195313 209.97644531 -35.62078125 210.50367188 -35.8359375 211.046875 C-37.77385147 214.4520667 -40.38507176 217.06127321 -43.078125 219.88671875 C-44.13961932 221.00890679 -45.19954413 222.13258174 -46.2578125 223.2578125 C-46.76280273 223.79390137 -47.26779297 224.32999023 -47.78808594 224.88232422 C-49.08181495 226.31489027 -50.27770358 227.83427246 -51.4609375 229.359375 C-52.03585937 230.04902344 -52.61078125 230.73867188 -53.203125 231.44921875 C-53.863125 231.44921875 -54.523125 231.44921875 -55.203125 231.44921875 C-55.533125 232.43921875 -55.863125 233.42921875 -56.203125 234.44921875 C-56.863125 234.44921875 -57.523125 234.44921875 -58.203125 234.44921875 C-58.203125 235.10921875 -58.203125 235.76921875 -58.203125 236.44921875 C-58.863125 236.44921875 -59.523125 236.44921875 -60.203125 236.44921875 C-60.4196875 236.990625 -60.63625 237.53203125 -60.859375 238.08984375 C-62.66812497 241.26567219 -65.12036299 243.65649956 -67.703125 246.19921875 C-68.20199219 246.70582031 -68.70085937 247.21242188 -69.21484375 247.734375 C-72.94971361 251.44921875 -72.94971361 251.44921875 -75.203125 251.44921875 C-75.533125 252.43921875 -75.863125 253.42921875 -76.203125 254.44921875 C-76.863125 254.44921875 -77.523125 254.44921875 -78.203125 254.44921875 C-78.203125 255.10921875 -78.203125 255.76921875 -78.203125 256.44921875 C-78.863125 256.44921875 -79.523125 256.44921875 -80.203125 256.44921875 C-80.533125 257.43921875 -80.863125 258.42921875 -81.203125 259.44921875 C-81.863125 259.44921875 -82.523125 259.44921875 -83.203125 259.44921875 C-83.203125 260.10921875 -83.203125 260.76921875 -83.203125 261.44921875 C-83.863125 261.44921875 -84.523125 261.44921875 -85.203125 261.44921875 C-85.533125 262.43921875 -85.863125 263.42921875 -86.203125 264.44921875 C-86.863125 264.44921875 -87.523125 264.44921875 -88.203125 264.44921875 C-88.203125 265.10921875 -88.203125 265.76921875 -88.203125 266.44921875 C-88.863125 266.44921875 -89.523125 266.44921875 -90.203125 266.44921875 C-90.533125 267.43921875 -90.863125 268.42921875 -91.203125 269.44921875 C-91.863125 269.44921875 -92.523125 269.44921875 -93.203125 269.44921875 C-93.203125 270.10921875 -93.203125 270.76921875 -93.203125 271.44921875 C-93.863125 271.44921875 -94.523125 271.44921875 -95.203125 271.44921875 C-95.533125 272.43921875 -95.863125 273.42921875 -96.203125 274.44921875 C-96.863125 274.44921875 -97.523125 274.44921875 -98.203125 274.44921875 C-98.203125 275.10921875 -98.203125 275.76921875 -98.203125 276.44921875 C-98.863125 276.44921875 -99.523125 276.44921875 -100.203125 276.44921875 C-100.41582031 276.990625 -100.62851562 277.53203125 -100.84765625 278.08984375 C-102.69318098 281.30222686 -105.24220627 283.65549179 -107.890625 286.19921875 C-112.08967148 290.29103152 -116.04818367 294.42620661 -119.703125 299.0234375 C-121.54859783 300.77759787 -122.68883969 301.13128708 -125.203125 301.44921875 C-127.63631176 299.67227325 -129.75391302 297.91997467 -131.953125 295.88671875 C-133.19875231 294.77145909 -134.44613794 293.65816003 -135.6953125 292.546875 C-136.29569336 292.00949707 -136.89607422 291.47211914 -137.51464844 290.91845703 C-139.61459137 289.09117875 -141.81455927 287.44278994 -144.078125 285.82421875 C-145.109375 285.04046875 -146.140625 284.25671875 -147.203125 283.44921875 C-147.203125 282.78921875 -147.203125 282.12921875 -147.203125 281.44921875 C-147.74710938 281.22363281 -148.29109375 280.99804688 -148.8515625 280.765625 C-151.93952619 279.03698088 -154.24767474 276.80371731 -156.828125 274.38671875 C-160.24522253 271.03388228 -160.24522253 271.03388228 -164.203125 268.44921875 C-164.203125 267.78921875 -164.203125 267.12921875 -164.203125 266.44921875 C-164.74839844 266.23265625 -165.29367188 266.01609375 -165.85546875 265.79296875 C-168.99172324 263.99784139 -171.28913848 261.53599415 -173.765625 258.94921875 C-176.45223613 256.16550119 -178.96152333 253.61028653 -182.203125 251.44921875 C-182.203125 250.78921875 -182.203125 250.12921875 -182.203125 249.44921875 C-182.8425 249.18109375 -183.481875 248.91296875 -184.140625 248.63671875 C-186.203125 247.44921875 -186.203125 247.44921875 -187.203125 244.44921875 C-187.863125 244.11921875 -188.523125 243.78921875 -189.203125 243.44921875 C-191.203125 242.44921875 -191.203125 242.44921875 -192.203125 239.44921875 C-192.863125 239.11921875 -193.523125 238.78921875 -194.203125 238.44921875 C-196.203125 237.44921875 -196.203125 237.44921875 -197.203125 234.44921875 C-197.863125 234.44921875 -198.523125 234.44921875 -199.203125 234.44921875 C-200.6484375 232.98046875 -200.6484375 232.98046875 -202.328125 230.94921875 C-204.84570402 227.98244514 -207.42481476 225.17347626 -210.203125 222.44921875 C-214.08351611 218.61317496 -217.65036037 214.5874577 -221.203125 210.44921875 C-222.1476032 209.36776039 -223.09299479 208.28709937 -224.0390625 207.20703125 C-237.29735904 192.04413731 -249.97023199 176.45011743 -262.203125 160.44921875 C-262.95207031 159.47726562 -263.70101562 158.5053125 -264.47265625 157.50390625 C-283.0577665 132.74899361 -296.8290762 105.79151619 -292.77734375 74.12109375 C-292.11997138 71.42707691 -291.27874144 69.00525352 -290.203125 66.44921875 C-289.75066406 65.35738281 -289.29820312 64.26554687 -288.83203125 63.140625 C-280.12893966 44.08565468 -264.60171949 30.2559518 -245.11132812 22.63085938 C-237.68252658 19.95759037 -230.1443363 17.66018072 -222.203125 17.44921875 C-221.43097656 17.41054687 -220.65882813 17.371875 -219.86328125 17.33203125 C-195.91482031 16.65103236 -175.43721699 27.2594759 -158.328125 43.11328125 C-152.46218382 48.77200168 -147.49719225 54.52491076 -143.203125 61.44921875 C-142.53410156 62.52042969 -141.86507812 63.59164062 -141.17578125 64.6953125 C-135.08462654 74.74097124 -131.37451857 85.14934346 -128.203125 96.44921875 C-128.02773193 95.76633789 -127.85233887 95.08345703 -127.67163086 94.37988281 C-121.0669494 68.8340789 -114.15417047 42.94977243 -98.203125 21.44921875 C-97.50445312 20.50433594 -96.80578125 19.55945313 -96.0859375 18.5859375 C-90.84842537 11.8479993 -85.03290128 6.5415958 -78.203125 1.44921875 C-77.48640625 0.89492187 -76.7696875 0.340625 -76.03125 -0.23046875 C-53.7592103 -16.39025695 -21.67236223 -17.84587722 0 0 Z " fill="#CA2229" transform="translate(381.203125,111.55078125)"/>
<path d="M0 0 C10.24402264 -0.29129922 19.98482569 1.90634771 29.66015625 5.1171875 C29.66015625 5.4471875 29.66015625 5.7771875 29.66015625 6.1171875 C25.48512396 6.38367892 22.5007574 6.17971033 18.59765625 4.6484375 C13.27641361 2.80338352 8.19143598 2.56593127 2.59765625 2.4296875 C1.63666016 2.39552734 0.67566406 2.36136719 -0.31445312 2.32617188 C-2.65613302 2.24462083 -4.99748238 2.17517784 -7.33984375 2.1171875 C-7.33984375 2.7771875 -7.33984375 3.4371875 -7.33984375 4.1171875 C-8.46003906 4.31054688 -9.58023438 4.50390625 -10.734375 4.703125 C-12.20709724 4.9657761 -13.67974994 5.22881733 -15.15234375 5.4921875 C-15.89033203 5.61851562 -16.62832031 5.74484375 -17.38867188 5.875 C-20.94579021 6.51882232 -23.29478459 7.08714806 -26.33984375 9.1171875 C-25.84484375 10.1071875 -25.84484375 10.1071875 -25.33984375 11.1171875 C-30.22061827 13.55757476 -32.86651443 14.58564171 -38.33984375 13.1171875 C-38.66984375 14.1071875 -38.99984375 15.0971875 -39.33984375 16.1171875 C-42.29403012 18.8144881 -44.52517795 20.84563223 -48.33984375 22.1171875 C-49.92494226 23.84177468 -51.31538222 25.66668823 -52.7421875 27.5234375 C-54.57630997 29.35307556 -55.81441408 29.7244641 -58.33984375 30.1171875 C-48.27464047 13.8525733 -29.23544505 5.59108783 -11.33984375 1.1171875 C-7.535954 0.36759746 -3.85913681 0.19327897 0 0 Z " fill="#CA555D" transform="translate(161.33984375,128.8828125)"/>
<path d="M0 0 C0 3.84821446 -1.60548045 6.217209 -3.5 9.4375 C-3.85731201 10.05278564 -4.21462402 10.66807129 -4.58276367 11.30200195 C-14.07936829 27.47301883 -14.07936829 27.47301883 -19 32 C-19.33 29.36 -19.66 26.72 -20 24 C-17 22 -17 22 -13 22 C-13 19.69 -13 17.38 -13 15 C-12.38125 14.79375 -11.7625 14.5875 -11.125 14.375 C-8.15346355 12.45224112 -7.86975341 10.33405473 -7 7 C-6.01 7 -5.02 7 -4 7 C-3.896875 6.21625 -3.79375 5.4325 -3.6875 4.625 C-3 2 -3 2 0 0 Z " fill="#CC4E55" transform="translate(383,267)"/>
<path d="M0 0 C2.475 0.495 2.475 0.495 5 1 C5 1.66 5 2.32 5 3 C5.928125 3.2165625 5.928125 3.2165625 6.875 3.4375 C9 4 9 4 11 5 C11 5.66 11 6.32 11 7 C11.66 7 12.32 7 13 7 C13 7.66 13 8.32 13 9 C14.32 9 15.64 9 17 9 C17 8.34 17 7.68 17 7 C17.99 7 18.98 7 20 7 C20 6.01 20 5.02 20 4 C21.65 3.67 23.3 3.34 25 3 C22.84085222 6.9773775 20.49778933 10.09939422 17 13 C13.91350159 12.66441065 12.08779562 11.52331514 9.765625 9.53125 C9.19199219 9.04269531 8.61835938 8.55414063 8.02734375 8.05078125 C7.44082031 7.53902344 6.85429687 7.02726562 6.25 6.5 C5.64800781 5.98824219 5.04601562 5.47648437 4.42578125 4.94921875 C2.92626073 3.66051517 1.45995059 2.33336528 0 1 C0 0.67 0 0.34 0 0 Z " fill="#CE636C" transform="translate(242,400)"/>
<path d="M0 0 C0.99 0.99 1.98 1.98 3 3 C2.21654285 4.17219543 1.42297164 5.33763668 0.625 6.5 C0.18414062 7.1496875 -0.25671875 7.799375 -0.7109375 8.46875 C-1.13632812 8.9740625 -1.56171875 9.479375 -2 10 C-2.66 10 -3.32 10 -4 10 C-4.33 10.99 -4.66 11.98 -5 13 C-5.66 13 -6.32 13 -7 13 C-7 13.66 -7 14.32 -7 15 C-7.66 15 -8.32 15 -9 15 C-9.268125 15.61875 -9.53625 16.2375 -9.8125 16.875 C-11 19 -11 19 -14 21 C-14 19.35 -14 17.7 -14 16 C-12.68 15.67 -11.36 15.34 -10 15 C-10 13.35 -10 11.7 -10 10 C-8.68 9.67 -7.36 9.34 -6 9 C-5.67 7.35 -5.34 5.7 -5 4 C-4.67 4.66 -4.34 5.32 -4 6 C-3.01 6 -2.02 6 -1 6 C-0.67 4.02 -0.34 2.04 0 0 Z " fill="#CB4D53" transform="translate(330,333)"/>
<path d="M0 0 C0.33 0 0.66 0 1 0 C0.421304 15.01716128 -3.61083583 29.06326807 -9 43 C-9.33 43 -9.66 43 -10 43 C-10.125 37.25 -10.125 37.25 -9 35 C-8.34 35 -7.68 35 -7 35 C-7.185625 34.21625 -7.37125 33.4325 -7.5625 32.625 C-8 30 -8 30 -7 28 C-6.34 28 -5.68 28 -5 28 C-4.95101563 27.05898437 -4.90203125 26.11796875 -4.8515625 25.1484375 C-4.77679688 23.90320313 -4.70203125 22.65796875 -4.625 21.375 C-4.55539062 20.14523438 -4.48578125 18.91546875 -4.4140625 17.6484375 C-4.01586138 14.13975972 -3.21057348 11.30156404 -2 8 C-1.60627253 6.54661093 -1.22831606 5.08873798 -0.875 3.625 C-0.58625 2.42875 -0.2975 1.2325 0 0 Z " fill="#CD656B" transform="translate(411,189)"/>
<path d="M0 0 C0.33 0.66 0.66 1.32 1 2 C2.98 1.34 4.96 0.68 7 0 C6.67 0.99 6.34 1.98 6 3 C5.34 3 4.68 3 4 3 C4 3.66 4 4.32 4 5 C3.34 5 2.68 5 2 5 C1.67 5.99 1.34 6.98 1 8 C0.34 8 -0.32 8 -1 8 C-1 8.66 -1 9.32 -1 10 C-1.66 10 -2.32 10 -3 10 C-3.226875 10.5775 -3.45375 11.155 -3.6875 11.75 C-5.33038023 14.5663661 -7.39533227 16.08077114 -10 18 C-11.3260274 12.57534247 -11.3260274 12.57534247 -9.9375 10.125 C-7.24099753 8.55928889 -5.05869541 8.79608697 -2 9 C-2.33 7.35 -2.66 5.7 -3 4 C-2.01 4.33 -1.02 4.66 0 5 C0 3.35 0 1.7 0 0 Z " fill="#CE4E55" transform="translate(284,378)"/>
<path d="M0 0 C0 0.33 0 0.66 0 1 C-4.13220617 1.26375784 -6.99180413 1.10831664 -10.8125 -0.5 C-17.41905869 -2.79071633 -24.15413651 -2.32028767 -31.0625 -2.1875 C-32.41860486 -2.17241956 -33.77472602 -2.15873712 -35.13085938 -2.14648438 C-38.42099602 -2.11135836 -41.71028183 -2.0621664 -45 -2 C-31.6938139 -8.91478022 -13.41246808 -4.45104029 0 0 Z " fill="#D47F83" transform="translate(191,134)"/>
<path d="M0 0 C1.06863281 0.01804688 2.13726562 0.03609375 3.23828125 0.0546875 C4.04652344 0.07789063 4.85476562 0.10109375 5.6875 0.125 C5.6875 0.455 5.6875 0.785 5.6875 1.125 C4.00720703 1.41503906 4.00720703 1.41503906 2.29296875 1.7109375 C0.82024651 1.9735886 -0.65240619 2.23662983 -2.125 2.5 C-2.86298828 2.62632812 -3.60097656 2.75265625 -4.36132812 2.8828125 C-7.91844646 3.52663482 -10.26744084 4.09496056 -13.3125 6.125 C-12.9825 6.785 -12.6525 7.445 -12.3125 8.125 C-18.59821429 10.55357143 -18.59821429 10.55357143 -22.3125 9.125 C-22.3125 8.465 -22.3125 7.805 -22.3125 7.125 C-20.58399655 6.33188633 -18.85466646 5.5405741 -17.125 4.75 C-15.68060547 4.08871094 -15.68060547 4.08871094 -14.20703125 3.4140625 C-13.25183594 2.98867187 -12.29664063 2.56328125 -11.3125 2.125 C-10.4978125 1.7434375 -9.683125 1.361875 -8.84375 0.96875 C-5.77670449 -0.0535985 -3.22493111 -0.07087761 0 0 Z " fill="#C9555A" transform="translate(148.3125,131.875)"/>
<path d="M0 0 C1.65 0.33 3.3 0.66 5 1 C1.43679155 6.09210286 -2.04741286 10.22660027 -7 14 C-7 12.35 -7 10.7 -7 9 C-6.01 9 -5.02 9 -4 9 C-4.33 8.01 -4.66 7.02 -5 6 C-3.68 5.67 -2.36 5.34 -1 5 C-0.67 3.35 -0.34 1.7 0 0 Z " fill="#CE585E" transform="translate(340,322)"/>
<path d="M0 0 C4.07803252 1.43886705 7.30611971 3.41684911 10.8125 5.9375 C12.27623047 6.97197266 12.27623047 6.97197266 13.76953125 8.02734375 C14.50558594 8.67832031 15.24164063 9.32929688 16 10 C16 10.99 16 11.98 16 13 C15.34 12.67 14.68 12.34 14 12 C14 11.34 14 10.68 14 10 C12.8553125 10.1546875 12.8553125 10.1546875 11.6875 10.3125 C10.3571875 10.1578125 10.3571875 10.1578125 9 10 C7.96210419 8.35666496 6.96432076 6.68756133 6 5 C4.35008418 4.29289322 2.68437744 3.62056011 1 3 C0.67 2.01 0.34 1.02 0 0 Z " fill="#CA595E" transform="translate(202,140)"/>
<path d="M0 0 C1.62047039 3.24094079 0.80276067 6.58652204 0 10 C-1.4375 12 -1.4375 12 -3 13 C-3.66 13 -4.32 13 -5 13 C-5 14.65 -5 16.3 -5 18 C-5.66 18 -6.32 18 -7 18 C-6.44380331 13.3110507 -5.11817327 9.80075733 -2.9375 5.625 C-2.38964844 4.56539062 -1.84179688 3.50578125 -1.27734375 2.4140625 C-0.85582031 1.61742187 -0.43429688 0.82078125 0 0 Z " fill="#D16B71" transform="translate(97,166)"/>
<path d="M0 0 C5.44567686 1.02862785 10.11817117 2.24614784 15 5 C14.67 5.66 14.34 6.32 14 7 C11.6875 7.1875 11.6875 7.1875 9 7 C8 6 7 5 6 4 C2.89160979 3.2730774 2.89160979 3.2730774 0 3 C0 2.01 0 1.02 0 0 Z " fill="#CC5C64" transform="translate(358,101)"/>
<path d="M0 0 C1.74631582 4.12765557 0.09432896 7.64470342 -1.3125 11.625 C-1.53873047 12.305625 -1.76496094 12.98625 -1.99804688 13.6875 C-3.01718815 16.65975064 -3.75082955 18.75082955 -6 21 C-6.125 15.25 -6.125 15.25 -5 13 C-4.34 13 -3.68 13 -3 13 C-3.185625 12.21625 -3.37125 11.4325 -3.5625 10.625 C-4 8 -4 8 -3 6 C-2.34 6 -1.68 6 -1 6 C-1.020625 5.195625 -1.04125 4.39125 -1.0625 3.5625 C-1 1 -1 1 0 0 Z " fill="#D26C75" transform="translate(407,211)"/>
<path d="M0 0 C0.66 0 1.32 0 2 0 C5.44419134 14.59681093 5.44419134 14.59681093 5 22 C4.67 22 4.34 22 4 22 C3.79503906 20.92878906 3.59007812 19.85757813 3.37890625 18.75390625 C3.10697291 17.35673149 2.83482648 15.95959819 2.5625 14.5625 C2.42779297 13.85544922 2.29308594 13.14839844 2.15429688 12.41992188 C1.71593102 8.91570736 1.71593102 8.91570736 0 6 C-0.04080783 4.00041636 -0.04254356 1.99954746 0 0 Z " fill="#CD656A" transform="translate(407,154)"/>
<path d="M0 0 C-0.33 1.98 -0.66 3.96 -1 6 C-1.99 6.33 -2.98 6.66 -4 7 C-4 6.34 -4 5.68 -4 5 C-8.455 5.495 -8.455 5.495 -13 6 C-11.66876597 3.33753193 -10.3235622 3.05398348 -7.625 1.875 C-6.83351563 1.52179688 -6.04203125 1.16859375 -5.2265625 0.8046875 C-3 0 -3 0 0 0 Z " fill="#CE595E" transform="translate(324,103)"/>
<path d="M0 0 C2.475 0.495 2.475 0.495 5 1 C5 1.66 5 2.32 5 3 C6.32 3.66 7.64 4.32 9 5 C9 5.66 9 6.32 9 7 C9.99 7 10.98 7 12 7 C12.33 8.65 12.66 10.3 13 12 C11.66102417 11.04956626 10.32894573 10.08940853 9 9.125 C7.88625 8.32449219 7.88625 8.32449219 6.75 7.5078125 C6.1725 7.01023437 5.595 6.51265625 5 6 C5 5.34 5 4.68 5 4 C4.360625 3.71125 3.72125 3.4225 3.0625 3.125 C1 2 1 2 0 0 Z " fill="#CF6267" transform="translate(212,374)"/>
<path d="M0 0 C1.32 0.33 2.64 0.66 4 1 C2.63055898 3.94956528 1.12169591 6.52468811 -1 9 C-1.66 9 -2.32 9 -3 9 C-3.33 9.66 -3.66 10.32 -4 11 C-4.33 9.02 -4.66 7.04 -5 5 C-4.34 5 -3.68 5 -3 5 C-3 4.34 -3 3.68 -3 3 C-2.34 3 -1.68 3 -1 3 C-0.67 2.01 -0.34 1.02 0 0 Z " fill="#CF5860" transform="translate(349,312)"/>
<path d="M0 0 C0.66 0 1.32 0 2 0 C3.60355101 3.50776784 4.22036864 6.14354879 4 10 C4.99 10.33 5.98 10.66 7 11 C7.33 11.99 7.66 12.98 8 14 C7.67 14.66 7.34 15.32 7 16 C7.66 16.33 8.32 16.66 9 17 C8.01 17 7.02 17 6 17 C4.9932996 14.73192796 3.99448234 12.46092246 3 10.1875 C2.71382813 9.54490234 2.42765625 8.90230469 2.1328125 8.24023438 C0.86288959 5.32243531 0 3.21734286 0 0 Z " fill="#D5777D" transform="translate(92,223)"/>
<path d="M0 0 C2.625 0.9375 2.625 0.9375 5 2 C4.67 2.66 4.34 3.32 4 4 C3.34 4 2.68 4 2 4 C2 4.66 2 5.32 2 6 C1.34 6 0.68 6 0 6 C-0.33 6.99 -0.66 7.98 -1 9 C-1.66 9 -2.32 9 -3 9 C-3.66 7.68 -4.32 6.36 -5 5 C-4.01 5 -3.02 5 -2 5 C-2 3.68 -2 2.36 -2 1 C-1.34 0.67 -0.68 0.34 0 0 Z " fill="#CC5158" transform="translate(301,362)"/>
<path d="M0 0 C6.68993219 0.53951066 12.63460728 1.88706171 19 4 C19 4.33 19 4.66 19 5 C11.96637582 5.44895473 5.89864623 3.93243082 0 0 Z " fill="#D16C70" transform="translate(172,130)"/>
<path d="M0 0 C1.39211215 4.17633644 -0.0464421 5.78960515 -1.9375 9.6875 C-2.50339844 10.86699219 -3.06929688 12.04648438 -3.65234375 13.26171875 C-4.09707031 14.16535156 -4.54179687 15.06898438 -5 16 C-5.33 16 -5.66 16 -6 16 C-6 13 -6 10 -6 7 C-5.01 7 -4.02 7 -3 7 C-2.67 5.35 -2.34 3.7 -2 2 C-1.34 2 -0.68 2 0 2 C0 1.34 0 0.68 0 0 Z " fill="#CF6D73" transform="translate(400,232)"/>
<path d="M0 0 C2.475 0.495 2.475 0.495 5 1 C5 1.66 5 2.32 5 3 C5.928125 3.2165625 5.928125 3.2165625 6.875 3.4375 C9 4 9 4 11 5 C11 5.66 11 6.32 11 7 C11.66 7.33 12.32 7.66 13 8 C7.13965614 7.71412957 3.92483606 5.08740323 0 1 C0 0.67 0 0.34 0 0 Z " fill="#C85558" transform="translate(242,400)"/>
<path d="M0 0 C2.68872443 2.35649699 3.9193851 4.63578765 5.25 7.9375 C5.78367188 9.21947266 5.78367188 9.21947266 6.328125 10.52734375 C7.04658772 13.17145366 6.91982605 14.45868571 6 17 C6 16.01 6 15.02 6 14 C5.01 13.67 4.02 13.34 3 13 C2.67 10.03 2.34 7.06 2 4 C1.34 4 0.68 4 0 4 C0 2.68 0 1.36 0 0 Z " fill="#D5767B" transform="translate(243,184)"/>
<path d="M0 0 C0.66 0.33 1.32 0.66 2 1 C2.38932033 2.98985949 2.71887936 4.99199544 3 7 C3.33 7.99 3.66 8.98 4 10 C3.34 10 2.68 10 2 10 C0.2734375 8.25 0.2734375 8.25 -1.625 6 C-2.25664062 5.2575 -2.88828125 4.515 -3.5390625 3.75 C-4.02117187 3.1725 -4.50328125 2.595 -5 2 C-4.360625 1.855625 -3.72125 1.71125 -3.0625 1.5625 C-1.02454854 1.18992819 -1.02454854 1.18992819 0 0 Z " fill="#CC555B" transform="translate(180,336)"/>
<path d="M0 0 C4.90629228 1.36285897 6.45770646 3.70440058 9 8 C9.99 9.485 9.99 9.485 11 11 C10.01 11 9.02 11 8 11 C5.95703125 8.84765625 5.95703125 8.84765625 3.8125 6.0625 C3.09707031 5.14597656 2.38164063 4.22945313 1.64453125 3.28515625 C0 1 0 1 0 0 Z " fill="#D27178" transform="translate(122,275)"/>
<path d="M0 0 C0.33 0.66 0.66 1.32 1 2 C-5.28571429 4.42857143 -5.28571429 4.42857143 -9 3 C-9 2.34 -9 1.68 -9 1 C-5.68042385 -1.0901035 -3.73206842 -1.21040057 0 0 Z " fill="#C43E43" transform="translate(135,138)"/>
<path d="M0 0 C2.31 0.33 4.62 0.66 7 1 C6.34 2.98 5.68 4.96 5 7 C3.35 6.67 1.7 6.34 0 6 C0 4.02 0 2.04 0 0 Z " fill="#CF434A" transform="translate(386,249)"/>
<path d="M0 0 C1.08030956 3.31809364 0.92122208 5.71803947 0.25 9.125 C0.01023437 10.42824219 0.01023437 10.42824219 -0.234375 11.7578125 C-1 14 -1 14 -4 16 C-3.39891424 10.34979382 -1.92471317 5.33835539 0 0 Z " fill="#D57279" transform="translate(263,173)"/>
<path d="M0 0 C0.33 0.66 0.66 1.32 1 2 C0.09515208 3.15518918 -0.8244206 4.29885406 -1.75 5.4375 C-2.26046875 6.07558594 -2.7709375 6.71367187 -3.296875 7.37109375 C-5.19667629 9.18810554 -6.43586908 9.60423197 -9 10 C-6.43571997 5.82117329 -3.98069267 2.87494471 0 0 Z " fill="#D07378" transform="translate(112,149)"/>
<path d="M0 0 C2.9375 0.75 2.9375 0.75 6 2 C6.875 4.125 6.875 4.125 7 6 C7.66 6 8.32 6 9 6 C9.33 7.65 9.66 9.3 10 11 C6.40365256 7.50640535 3.16548033 3.88901869 0 0 Z " fill="#D67878" transform="translate(152,312)"/>
<path d="M0 0 C0 3.44360632 -0.79591532 4.74795392 -2.5 7.6875 C-2.9640625 8.49574219 -3.428125 9.30398438 -3.90625 10.13671875 C-4.44765625 11.05904297 -4.44765625 11.05904297 -5 12 C-7 9 -7 9 -7 7 C-6.01 7 -5.02 7 -4 7 C-3.896875 6.21625 -3.79375 5.4325 -3.6875 4.625 C-3 2 -3 2 0 0 Z " fill="#D16B6F" transform="translate(383,267)"/>
<path d="M0 0 C0.66 0 1.32 0 2 0 C1.52496041 4.98791571 0.0298864 8.0232741 -3 12 C-3.33 12 -3.66 12 -4 12 C-4 10.35 -4 8.7 -4 7 C-3.34 7 -2.68 7 -2 7 C-1.34 4.69 -0.68 2.38 0 0 Z " fill="#C6565C" transform="translate(375,276)"/>
<path d="M0 0 C0.33 0 0.66 0 1 0 C1.20177072 7.35342179 1.21211746 13.94887561 -1 21 C-1.33 21 -1.66 21 -2 21 C-2.0270043 19.54176788 -2.04639787 18.08339325 -2.0625 16.625 C-2.07410156 15.81289062 -2.08570313 15.00078125 -2.09765625 14.1640625 C-2 12 -2 12 -1 10 C-0.77377919 8.29636178 -0.59111527 6.58671299 -0.4375 4.875 C-0.35371094 3.96492187 -0.26992188 3.05484375 -0.18359375 2.1171875 C-0.12300781 1.41851562 -0.06242187 0.71984375 0 0 Z " fill="#BD3A3F" transform="translate(411,176)"/>
<path d="M0 0 C2.98205122 2.55604391 4.58490064 5.35053322 6 9 C5.1875 11.375 5.1875 11.375 4 13 C3.70996094 12.16855469 3.70996094 12.16855469 3.4140625 11.3203125 C3.15367187 10.59585938 2.89328125 9.87140625 2.625 9.125 C2.36976563 8.40570313 2.11453125 7.68640625 1.8515625 6.9453125 C1.06122217 4.81842006 1.06122217 4.81842006 -1 3 C-0.67 2.01 -0.34 1.02 0 0 Z " fill="#CE6067" transform="translate(398,132)"/>
<path d="M0 0 C0.763125 0.309375 1.52625 0.61875 2.3125 0.9375 C4.18789677 1.67893593 6.08684652 2.36228217 8 3 C8.33 4.98 8.66 6.96 9 9 C7.68103535 8.07161713 6.37001311 7.13194268 5.0625 6.1875 C4.33160156 5.66542969 3.60070312 5.14335937 2.84765625 4.60546875 C1 3 1 3 0 0 Z " fill="#D06368" transform="translate(199,361)"/>
<path d="M0 0 C1.98 0 3.96 0 6 0 C6.12375 0.969375 6.2475 1.93875 6.375 2.9375 C6.58125 3.948125 6.7875 4.95875 7 6 C7.66 6.33 8.32 6.66 9 7 C6 7 6 7 4.39453125 5.46875 C3.87246094 4.8190625 3.35039062 4.169375 2.8125 3.5 C2.28269531 2.8503125 1.75289062 2.200625 1.20703125 1.53125 C0.80871094 1.0259375 0.41039062 0.520625 0 0 Z " fill="#D26F75" transform="translate(167,329)"/>
<path d="M0 0 C0.33 0.66 0.66 1.32 1 2 C2.98 1.34 4.96 0.68 7 0 C6.67 0.99 6.34 1.98 6 3 C5.34 3 4.68 3 4 3 C4 3.66 4 4.32 4 5 C3.34 5 2.68 5 2 5 C1.67 5.99 1.34 6.98 1 8 C0.67 8 0.34 8 0 8 C0 5.36 0 2.72 0 0 Z " fill="#D17276" transform="translate(284,378)"/>
<path d="M0 0 C0 1.32 0 2.64 0 4 C0.66 4.33 1.32 4.66 2 5 C2.33 5.99 2.66 6.98 3 8 C1.0625 7.1875 1.0625 7.1875 -1 6 C-1.33 5.01 -1.66 4.02 -2 3 C-2.99 2.67 -3.98 2.34 -5 2 C-2 0 -2 0 0 0 Z " fill="#D5787B" transform="translate(196,353)"/>
<path d="M0 0 C0.33 0.66 0.66 1.32 1 2 C0.00390625 4.1640625 0.00390625 4.1640625 -1.4375 6.625 C-1.91058594 7.44226563 -2.38367188 8.25953125 -2.87109375 9.1015625 C-3.24363281 9.72804688 -3.61617188 10.35453125 -4 11 C-4.33 11 -4.66 11 -5 11 C-4.67 8.69 -4.34 6.38 -4 4 C-3.34 4 -2.68 4 -2 4 C-2 3.01 -2 2.02 -2 1 C-1.34 0.67 -0.68 0.34 0 0 Z " fill="#D3747B" transform="translate(389,256)"/>
<path d="M0 0 C0.33 0 0.66 0 1 0 C1.14285714 8.57142857 1.14285714 8.57142857 0 12 C-0.99 12 -1.98 12 -3 12 C-2 8 -1 4 0 0 Z " fill="#D67673" transform="translate(255,200)"/>
<path d="M0 0 C1.14926266 0.95421808 2.29430541 1.91352045 3.4375 2.875 C4.07558594 3.40867188 4.71367187 3.94234375 5.37109375 4.4921875 C7 6 7 6 8 8 C5.6875 7.8125 5.6875 7.8125 3 7 C0 2.96551724 0 2.96551724 0 0 Z " fill="#CD525B" transform="translate(219,152)"/>
<path d="M0 0 C2.31 0.33 4.62 0.66 7 1 C7 2.98 7 4.96 7 7 C6.34 6.67 5.68 6.34 5 6 C5 5.34 5 4.68 5 4 C4.360625 3.71125 3.72125 3.4225 3.0625 3.125 C1 2 1 2 0 0 Z " fill="#D3797C" transform="translate(184,347)"/>
<path d="M0 0 C0.66 0.66 1.32 1.32 2 2 C0.02 4.64 -1.96 7.28 -4 10 C-4.33 8.68 -4.66 7.36 -5 6 C-4.34 6 -3.68 6 -3 6 C-3 5.34 -3 4.68 -3 4 C-2.34 4 -1.68 4 -1 4 C-0.67 2.68 -0.34 1.36 0 0 Z " fill="#D37278" transform="translate(362,298)"/>
<path d="M0 0 C2.31 0.66 4.62 1.32 7 2 C7 2.66 7 3.32 7 4 C7.66 4 8.32 4 9 4 C9 4.66 9 5.32 9 6 C4.75177626 5.52797514 2.80010291 3.03344482 0 0 Z " fill="#CD7A7B" transform="translate(250,407)"/>
<path d="M0 0 C0.99 0.33 1.98 0.66 3 1 C1.60667426 4.36720387 0.0210714 5.9859524 -3 8 C-3 6.68 -3 5.36 -3 4 C-2.34 4 -1.68 4 -1 4 C-0.67 2.68 -0.34 1.36 0 0 Z " fill="#C75C60" transform="translate(270,395)"/>
<path d="M0 0 C0.33 0 0.66 0 1 0 C1.0270043 1.45823212 1.04639787 2.91660675 1.0625 4.375 C1.07410156 5.18710938 1.08570313 5.99921875 1.09765625 6.8359375 C1 9 1 9 0 11 C-0.66 11 -1.32 11 -2 11 C-1.125 3.375 -1.125 3.375 0 0 Z " fill="#D3737B" transform="translate(258,189)"/>
<path d="M0 0 C0.33 0 0.66 0 1 0 C1.33 2.64 1.66 5.28 2 8 C0.35 8.66 -1.3 9.32 -3 10 C-2.01 6.7 -1.02 3.4 0 0 Z " fill="#D3676D" transform="translate(267,162)"/>
<path d="M0 0 C0.86625 0.2475 1.7325 0.495 2.625 0.75 C2.295 1.41 1.965 2.07 1.625 2.75 C-1.345 2.255 -1.345 2.255 -4.375 1.75 C-4.705 2.74 -5.035 3.73 -5.375 4.75 C-6.695 4.42 -8.015 4.09 -9.375 3.75 C-4.20576923 -0.31153846 -4.20576923 -0.31153846 0 0 Z " fill="#D2676E" transform="translate(127.375,140.25)"/>
<path d="M0 0 C2.04119788 1.61594832 4.04072937 3.2856382 6 5 C6 5.66 6 6.32 6 7 C4.35 6.67 2.7 6.34 1 6 C0.4465236 3.92446352 0 2.15634036 0 0 Z " fill="#CF5C62" transform="translate(387,118)"/>
<path d="M0 0 C0.66 0.33 1.32 0.66 2 1 C0.02 3.97 0.02 3.97 -2 7 C-3.32 6.67 -4.64 6.34 -6 6 C-4.02 4.02 -2.04 2.04 0 0 Z " fill="#CF6A6F" transform="translate(300,115)"/>
<path d="M0 0 C1.98 0 3.96 0 6 0 C6 1.65 6 3.3 6 5 C2.83884224 3.63016497 2.0072908 3.0109362 0 0 Z " fill="#D05D62" transform="translate(236,395)"/>
<path d="M0 0 C0.99 0.33 1.98 0.66 3 1 C2.67 2.65 2.34 4.3 2 6 C1.34 6 0.68 6 0 6 C-0.33 6.99 -0.66 7.98 -1 9 C-1.66 7.68 -2.32 6.36 -3 5 C-1.68 5 -0.36 5 1 5 C0.67 3.35 0.34 1.7 0 0 Z " fill="#CF5B60" transform="translate(281,382)"/>
<path d="M0 0 C3.65316671 1.24976756 4.78065836 1.67098753 7 5 C6.67 5.99 6.34 6.98 6 8 C4.02 5.36 2.04 2.72 0 0 Z " fill="#CE686B" transform="translate(134,290)"/>
<path d="M0 0 C0.33 0 0.66 0 1 0 C1.25 2.8125 1.25 2.8125 1 6 C-1 7.875 -1 7.875 -3 9 C-3 7.35 -3 5.7 -3 4 C-2.01 4 -1.02 4 0 4 C-0.33 3.01 -0.66 2.02 -1 1 C-0.67 0.67 -0.34 0.34 0 0 Z " fill="#C95055" transform="translate(336,327)"/>
<path d="M0 0 C0.99 0.33 1.98 0.66 3 1 C2.67 3.64 2.34 6.28 2 9 C0.14223235 5.86501708 -0.20140476 3.62528568 0 0 Z " fill="#D15E64" transform="translate(89,211)"/>
<path d="M0 0 C1.70884005 1.62339805 3.37446717 3.29319053 5 5 C5 5.66 5 6.32 5 7 C4.01 7.33 3.02 7.66 2 8 C2 7.34 2 6.68 2 6 C1.34 5.67 0.68 5.34 0 5 C0 3.35 0 1.7 0 0 Z " fill="#CC5D63" transform="translate(393,125)"/>
<path d="M0 0 C2.475 0.495 2.475 0.495 5 1 C5 1.66 5 2.32 5 3 C5.66 3.33 6.32 3.66 7 4 C7 4.66 7 5.32 7 6 C6.34 6 5.68 6 5 6 C5 5.34 5 4.68 5 4 C4.360625 3.71125 3.72125 3.4225 3.0625 3.125 C1 2 1 2 0 0 Z " fill="#D57A7F" transform="translate(212,374)"/>
<path d="M0 0 C0.99 1.32 1.98 2.64 3 4 C2.01 4.66 1.02 5.32 0 6 C-1.5 4.625 -1.5 4.625 -3 3 C-3 2.34 -3 1.68 -3 1 C-2.01 0.67 -1.02 0.34 0 0 Z " fill="#CD5D63" transform="translate(144,297)"/>
<path d="M0 0 C0.66 0 1.32 0 2 0 C4.09230769 4.43076923 4.09230769 4.43076923 3.625 7.3125 C3.41875 7.869375 3.2125 8.42625 3 9 C0 3.375 0 3.375 0 0 Z " fill="#C96066" transform="translate(92,223)"/>
<path d="M0 0 C1.39195915 4.17587745 -0.17676781 6.13474776 -2 10 C-2.33 10 -2.66 10 -3 10 C-3.125 4.25 -3.125 4.25 -2 2 C-1.34 2 -0.68 2 0 2 C0 1.34 0 0.68 0 0 Z " fill="#D98085" transform="translate(404,222)"/>
<path d="M0 0 C4.75286041 4.29290618 4.75286041 4.29290618 5 8 C4.34 8.66 3.68 9.32 3 10 C3 8.35 3 6.7 3 5 C2.01 4.67 1.02 4.34 0 4 C0 2.68 0 1.36 0 0 Z " fill="#CB5D61" transform="translate(236,172)"/>
<path d="M0 0 C0.99 0 1.98 0 3 0 C2.6875 1.875 2.6875 1.875 2 4 C1.01 4.66 0.02 5.32 -1 6 C-1.042721 4.33388095 -1.04063832 2.66617115 -1 1 C-0.67 0.67 -0.34 0.34 0 0 Z " fill="#CC696C" transform="translate(317,348)"/>
<path d="M0 0 C0.33 1.32 0.66 2.64 1 4 C0.34 4 -0.32 4 -1 4 C-1 4.99 -1 5.98 -1 7 C-1.99 7 -2.98 7 -4 7 C-2.92598892 4.08482708 -2.22189824 2.22189824 0 0 Z " fill="#CF757A" transform="translate(102,159)"/>
<path d="M0 0 C3.37503669 1.1858237 5.64722731 2.27573689 8 5 C4.5625 4.1875 4.5625 4.1875 1 3 C0.67 2.01 0.34 1.02 0 0 Z " fill="#D07577" transform="translate(202,140)"/>
<path d="M0 0 C1 2 1 2 0.25 4.5625 C-1 7 -1 7 -4 8 C-2.87548273 5.0280615 -1.77706209 2.66559313 0 0 Z " fill="#D06B70" transform="translate(281,136)"/>
<path d="M0 0 C1.65 0.33 3.3 0.66 5 1 C4.01 2.485 4.01 2.485 3 4 C1.68 3.67 0.36 3.34 -1 3 C-0.67 2.01 -0.34 1.02 0 0 Z " fill="#C84248" transform="translate(197,138)"/>
<path d="M0 0 C0.33 0.99 0.66 1.98 1 3 C-0.8125 5.6875 -0.8125 5.6875 -3 8 C-3.66 8 -4.32 8 -5 8 C-3.62845496 5.04590299 -2.01136276 2.55991624 0 0 Z " fill="#D27C82" transform="translate(287,128)"/>
</svg>
